<svg width="41" height="40" viewBox="0 0 41 40" fill="none" xmlns="http://www.w3.org/2000/svg">
<rect width="40" height="40" rx="4" fill="#F2F8FE"/>
<path d="M14.7415 30.7151C13.3362 30.7151 12.0694 30.4973 10.9411 30.0619C9.81286 29.6066 8.85286 28.9435 8.06111 28.0726C7.26936 27.1819 6.65575 26.0833 6.22028 24.7769C5.78482 23.4507 5.56709 21.9068 5.56709 20.1452C5.56709 18.4033 5.78482 16.8594 6.22028 15.5134C6.65575 14.1476 7.26936 13.0095 8.06111 12.099C8.85286 11.1687 9.81286 10.466 10.9411 9.99093C12.0694 9.51588 13.3362 9.27835 14.7415 9.27835C16.6615 9.27835 18.245 9.67423 19.492 10.466C20.739 11.2379 21.7386 12.4652 22.4908 14.1476L18.6013 16.1666C18.3242 15.2957 17.8887 14.6029 17.2949 14.0882C16.7209 13.5538 15.8698 13.2866 14.7415 13.2866C13.4153 13.2866 12.3465 13.7221 11.5349 14.593C10.7432 15.4441 10.3473 16.6911 10.3473 18.334V21.6594C10.3473 23.3023 10.7432 24.5592 11.5349 25.4301C12.3465 26.2812 13.4153 26.7068 14.7415 26.7068C15.85 26.7068 16.7308 26.4099 17.384 25.8161C18.057 25.2025 18.5518 24.4701 18.8685 23.619L22.5502 25.7567C21.7782 27.3402 20.7588 28.5674 19.492 29.4384C18.245 30.2895 16.6615 30.7151 14.7415 30.7151Z" fill="#3E67FF"/>
<path d="M27.929 30.9917L28.3577 32.4149H29.8441H34.5352H37.2887L36.4371 29.7963L29.6973 9.07219L29.2481 7.69073H27.7954L22.2135 7.69073H20.7668L20.314 9.06481L13.4851 29.7889L12.6199 32.4149H15.3847H19.957H21.4434L21.8721 30.9917L22.9279 27.4862L26.8732 27.4862L27.929 30.9917Z" fill="#3E67FF" stroke="#F2F8FE" stroke-width="4"/>
</svg>
